<?xml version="1.0" encoding="iso-8859-1"?>
<!-- Generator: Adobe Illustrator 19.0.0, SVG Export Plug-In . SVG Version: 6.00 Build 0)  -->
<svg version="1.1" id="Capa_1" xmlns="http://www.w3.org/2000/svg" xmlns:xlink="http://www.w3.org/1999/xlink" x="0px" y="0px"
	 viewBox="0 0 60 60" style="enable-background:new 0 0 60 60;" xml:space="preserve">
<g>
	<path fill="white" d="M33.443,18.124c0.388-0.904,0.492-1.925,0.292-2.875C33.579,14.508,33.5,13.751,33.5,13s0.079-1.508,0.235-2.249
		c0.2-0.95,0.096-1.971-0.292-2.875C31.39,3.092,26.702,0,21.5,0c-2.757,0-5,2.243-5,5v1h-2v14h2v1c0,2.757,2.243,5,5,5
		C26.702,26,31.39,22.908,33.443,18.124z"/>
	<path fill="white" d="M43.5,27c0-2.757-2.243-5-5-5c-5.202,0-9.89,3.092-11.943,7.876c-0.388,0.904-0.492,1.925-0.292,2.875
		C26.421,33.492,26.5,34.249,26.5,35s-0.079,1.508-0.235,2.249c-0.2,0.95-0.096,1.971,0.292,2.875C28.61,44.908,33.298,48,38.5,48
		c2.757,0,5-2.243,5-5v-1h2V28h-2V27z"/>
	<path fill="white" d="M1.5,15v16.32C1.5,32.798,2.702,34,4.18,34H5.5v26h2V34h1.32c1.478,0,2.68-1.202,2.68-2.68V20.68
		c0-0.375,0.305-0.68,0.68-0.68h0.32V6h-2C5.538,6,1.5,10.037,1.5,15z"/>
	<path fill="white" d="M49.5,28h-2v14h0.32c0.375,0,0.68,0.305,0.68,0.68V53.32c0,1.478,1.202,2.68,2.68,2.68h1.32v4h2v-4h1.32
		c1.478,0,2.68-1.202,2.68-2.68V37C58.5,32.037,54.462,28,49.5,28z"/>
</g>
<g>
</g>
<g>
</g>
<g>
</g>
<g>
</g>
<g>
</g>
<g>
</g>
<g>
</g>
<g>
</g>
<g>
</g>
<g>
</g>
<g>
</g>
<g>
</g>
<g>
</g>
<g>
</g>
<g>
</g>
</svg>
